<mxfile host="app.diagrams.net" agent="Mozilla/5.0 (Macintosh; Intel Mac OS X 10_15_7) AppleWebKit/605.1.15 (KHTML, like Gecko) Version/18.2 Safari/605.1.15" version="28.2.3">
  <diagram name="Page-1" id="dUV3OS4tSXvgmc0oWtay">
    <mxGraphModel dx="830" dy="1669" grid="1" gridSize="10" guides="1" tooltips="1" connect="1" arrows="1" fold="1" page="1" pageScale="1" pageWidth="850" pageHeight="1100" math="0" shadow="0">
      <root>
        <mxCell id="0" />
        <mxCell id="1" parent="0" />
        <mxCell id="bdSsWbuUKSo4tQdDhPc--3" value="" style="edgeStyle=orthogonalEdgeStyle;rounded=0;orthogonalLoop=1;jettySize=auto;html=1;labelBackgroundColor=none;strokeColor=#E07A5F;fontColor=default;sketch=1;curveFitting=1;jiggle=2;" edge="1" parent="1" source="bdSsWbuUKSo4tQdDhPc--1" target="bdSsWbuUKSo4tQdDhPc--2">
          <mxGeometry relative="1" as="geometry" />
        </mxCell>
        <mxCell id="bdSsWbuUKSo4tQdDhPc--1" value="INICIO" style="ellipse;whiteSpace=wrap;html=1;labelBackgroundColor=none;fillColor=#F2CC8F;strokeColor=#E07A5F;fontColor=#393C56;sketch=1;curveFitting=1;jiggle=2;" vertex="1" parent="1">
          <mxGeometry x="80" y="-1070" width="85" height="40" as="geometry" />
        </mxCell>
        <mxCell id="bdSsWbuUKSo4tQdDhPc--5" value="" style="edgeStyle=orthogonalEdgeStyle;rounded=0;orthogonalLoop=1;jettySize=auto;html=1;labelBackgroundColor=none;strokeColor=#E07A5F;fontColor=default;sketch=1;curveFitting=1;jiggle=2;" edge="1" parent="1" source="bdSsWbuUKSo4tQdDhPc--2" target="bdSsWbuUKSo4tQdDhPc--4">
          <mxGeometry relative="1" as="geometry" />
        </mxCell>
        <mxCell id="bdSsWbuUKSo4tQdDhPc--2" value="N, phi, L_loc,&amp;nbsp;&lt;div&gt;L_zh, C1, t_est&lt;/div&gt;" style="shape=parallelogram;perimeter=parallelogramPerimeter;whiteSpace=wrap;html=1;fixedSize=1;labelBackgroundColor=none;fillColor=#F2CC8F;strokeColor=#E07A5F;fontColor=#393C56;sketch=1;curveFitting=1;jiggle=2;" vertex="1" parent="1">
          <mxGeometry x="56.25" y="-1010" width="132.5" height="60" as="geometry" />
        </mxCell>
        <mxCell id="bdSsWbuUKSo4tQdDhPc--7" value="" style="edgeStyle=orthogonalEdgeStyle;rounded=0;orthogonalLoop=1;jettySize=auto;html=1;labelBackgroundColor=none;strokeColor=#E07A5F;fontColor=default;sketch=1;curveFitting=1;jiggle=2;" edge="1" parent="1" source="bdSsWbuUKSo4tQdDhPc--4" target="bdSsWbuUKSo4tQdDhPc--6">
          <mxGeometry relative="1" as="geometry" />
        </mxCell>
        <mxCell id="bdSsWbuUKSo4tQdDhPc--4" value="&lt;p&gt;&lt;font face=&quot;Helvetica&quot;&gt;delta =&amp;nbsp;&lt;span style=&quot;caret-color: rgb(33, 33, 33); color: rgb(33, 33, 33); font-size: 13px; text-align: start;&quot; class=&quot;mf&quot;&gt;0.4093&lt;/span&gt;&lt;span style=&quot;caret-color: rgb(33, 33, 33); color: rgb(33, 33, 33); font-size: 13px; text-align: start;&quot;&gt;&amp;nbsp;&lt;b&gt;*&amp;nbsp;&lt;/b&gt;&lt;/span&gt;&lt;span style=&quot;caret-color: rgb(33, 33, 33); color: rgb(33, 33, 33); font-size: 13px; text-align: start;&quot; class=&quot;n&quot;&gt;sin&lt;/span&gt;&lt;span style=&quot;caret-color: rgb(33, 33, 33); color: rgb(33, 33, 33); font-size: 13px; text-align: start;&quot; class=&quot;p&quot;&gt;(&lt;/span&gt;&lt;span style=&quot;caret-color: rgb(33, 33, 33); color: rgb(33, 33, 33); font-size: 13px; text-align: start;&quot; class=&quot;mi&quot;&gt;2&lt;/span&gt;&lt;span style=&quot;caret-color: rgb(33, 33, 33); color: rgb(33, 33, 33); font-size: 13px; text-align: start;&quot;&gt; &lt;/span&gt;&lt;span style=&quot;caret-color: rgb(33, 33, 33); color: rgb(33, 33, 33); font-size: 13px; text-align: start; font-weight: bold;&quot; class=&quot;o&quot;&gt;*&lt;/span&gt;&lt;span style=&quot;caret-color: rgb(33, 33, 33); color: rgb(33, 33, 33); font-size: 13px; text-align: start;&quot;&gt; &lt;/span&gt;&lt;span style=&quot;caret-color: rgb(33, 33, 33); color: rgb(33, 33, 33); font-size: 13px; text-align: start;&quot; class=&quot;n&quot;&gt;pi&lt;/span&gt;&lt;span style=&quot;caret-color: rgb(33, 33, 33); color: rgb(33, 33, 33); font-size: 13px; text-align: start;&quot;&gt; &lt;/span&gt;&lt;span style=&quot;caret-color: rgb(33, 33, 33); color: rgb(33, 33, 33); font-size: 13px; text-align: start; font-weight: bold;&quot; class=&quot;o&quot;&gt;*&lt;/span&gt;&lt;span style=&quot;caret-color: rgb(33, 33, 33); color: rgb(33, 33, 33); font-size: 13px; text-align: start;&quot;&gt; &lt;/span&gt;&lt;span style=&quot;caret-color: rgb(33, 33, 33); color: rgb(33, 33, 33); font-size: 13px; text-align: start;&quot; class=&quot;p&quot;&gt;(&lt;/span&gt;&lt;span style=&quot;caret-color: rgb(33, 33, 33); color: rgb(33, 33, 33); font-size: 13px; text-align: start;&quot; class=&quot;mi&quot;&gt;284&lt;/span&gt;&lt;span style=&quot;caret-color: rgb(33, 33, 33); color: rgb(33, 33, 33); font-size: 13px; text-align: start;&quot;&gt; &lt;/span&gt;&lt;span style=&quot;caret-color: rgb(33, 33, 33); color: rgb(33, 33, 33); font-size: 13px; text-align: start; font-weight: bold;&quot; class=&quot;o&quot;&gt;+&lt;/span&gt;&lt;span style=&quot;caret-color: rgb(33, 33, 33); color: rgb(33, 33, 33); font-size: 13px; text-align: start;&quot;&gt; &lt;/span&gt;&lt;span style=&quot;caret-color: rgb(33, 33, 33); color: rgb(33, 33, 33); font-size: 13px; text-align: start;&quot; class=&quot;n&quot;&gt;N&lt;/span&gt;&lt;span style=&quot;caret-color: rgb(33, 33, 33); color: rgb(33, 33, 33); font-size: 13px; text-align: start;&quot; class=&quot;p&quot;&gt;)&lt;/span&gt;&lt;span style=&quot;caret-color: rgb(33, 33, 33); color: rgb(33, 33, 33); font-size: 13px; text-align: start;&quot;&gt; &lt;/span&gt;&lt;span style=&quot;caret-color: rgb(33, 33, 33); color: rgb(33, 33, 33); font-size: 13px; text-align: start; font-weight: bold;&quot; class=&quot;o&quot;&gt;/&lt;/span&gt;&lt;span style=&quot;caret-color: rgb(33, 33, 33); color: rgb(33, 33, 33); font-size: 13px; text-align: start;&quot;&gt; &lt;/span&gt;&lt;span style=&quot;caret-color: rgb(33, 33, 33); color: rgb(33, 33, 33); font-size: 13px; text-align: start;&quot; class=&quot;mi&quot;&gt;365&lt;/span&gt;&lt;span style=&quot;caret-color: rgb(33, 33, 33); color: rgb(33, 33, 33); font-size: 13px; text-align: start;&quot; class=&quot;p&quot;&gt;)&lt;/span&gt;&lt;/font&gt;&lt;/p&gt;" style="rounded=0;whiteSpace=wrap;html=1;labelBackgroundColor=none;fillColor=#F2CC8F;strokeColor=#E07A5F;fontColor=#393C56;sketch=1;curveFitting=1;jiggle=2;" vertex="1" parent="1">
          <mxGeometry x="49.38" y="-920" width="146.25" height="60" as="geometry" />
        </mxCell>
        <mxCell id="bdSsWbuUKSo4tQdDhPc--11" value="" style="edgeStyle=orthogonalEdgeStyle;rounded=0;orthogonalLoop=1;jettySize=auto;html=1;labelBackgroundColor=none;strokeColor=#E07A5F;fontColor=default;sketch=1;curveFitting=1;jiggle=2;" edge="1" parent="1" source="bdSsWbuUKSo4tQdDhPc--6" target="bdSsWbuUKSo4tQdDhPc--9">
          <mxGeometry relative="1" as="geometry" />
        </mxCell>
        <mxCell id="bdSsWbuUKSo4tQdDhPc--6" value="&lt;p&gt;&lt;span&gt;omega_o =&amp;nbsp;&lt;span style=&quot;caret-color: rgb(33, 33, 33); color: rgb(33, 33, 33); font-size: 13px; text-align: start;&quot; class=&quot;n&quot;&gt;arccos&lt;/span&gt;&lt;span style=&quot;caret-color: rgb(33, 33, 33); color: rgb(33, 33, 33); font-size: 13px; text-align: start;&quot; class=&quot;p&quot;&gt;(&lt;/span&gt;&lt;span style=&quot;caret-color: rgb(33, 33, 33); color: rgb(33, 33, 33); font-size: 13px; text-align: start; font-weight: bold;&quot; class=&quot;o&quot;&gt;-&lt;/span&gt;&lt;span style=&quot;caret-color: rgb(33, 33, 33); color: rgb(33, 33, 33); font-size: 13px; text-align: start;&quot; class=&quot;n&quot;&gt;tan&lt;/span&gt;&lt;span style=&quot;caret-color: rgb(33, 33, 33); color: rgb(33, 33, 33); font-size: 13px; text-align: start;&quot; class=&quot;p&quot;&gt;(&lt;/span&gt;&lt;span style=&quot;caret-color: rgb(33, 33, 33); color: rgb(33, 33, 33); font-size: 13px; text-align: start;&quot; class=&quot;n&quot;&gt;delta&lt;/span&gt;&lt;span style=&quot;caret-color: rgb(33, 33, 33); color: rgb(33, 33, 33); font-size: 13px; text-align: start;&quot; class=&quot;p&quot;&gt;)&lt;/span&gt;&lt;span style=&quot;caret-color: rgb(33, 33, 33); color: rgb(33, 33, 33); font-size: 13px; text-align: start; font-weight: bold;&quot; class=&quot;o&quot;&gt;*&lt;/span&gt;&lt;span style=&quot;caret-color: rgb(33, 33, 33); color: rgb(33, 33, 33); font-size: 13px; text-align: start;&quot; class=&quot;n&quot;&gt;tan&lt;/span&gt;&lt;span style=&quot;caret-color: rgb(33, 33, 33); color: rgb(33, 33, 33); font-size: 13px; text-align: start;&quot; class=&quot;p&quot;&gt;(&lt;/span&gt;&lt;span style=&quot;caret-color: rgb(33, 33, 33); color: rgb(33, 33, 33); font-size: 13px; text-align: start;&quot; class=&quot;n&quot;&gt;phi&lt;/span&gt;&lt;span style=&quot;caret-color: rgb(33, 33, 33); color: rgb(33, 33, 33); font-size: 13px; text-align: start;&quot; class=&quot;p&quot;&gt;))&lt;br&gt;&lt;/span&gt;&lt;span style=&quot;caret-color: rgb(33, 33, 33); color: rgb(33, 33, 33); font-size: 13px; text-align: start;&quot; class=&quot;n&quot;&gt;t_d&lt;/span&gt;&lt;span style=&quot;caret-color: rgb(33, 33, 33); color: rgb(33, 33, 33); font-size: 13px; text-align: start;&quot;&gt; &lt;/span&gt;&lt;span style=&quot;caret-color: rgb(33, 33, 33); color: rgb(33, 33, 33); font-size: 13px; text-align: start; font-weight: bold;&quot; class=&quot;o&quot;&gt;=&lt;/span&gt;&lt;span style=&quot;caret-color: rgb(33, 33, 33); color: rgb(33, 33, 33); font-size: 13px; text-align: start;&quot;&gt; &lt;/span&gt;&lt;span style=&quot;caret-color: rgb(33, 33, 33); color: rgb(33, 33, 33); font-size: 13px; text-align: start;&quot; class=&quot;mi&quot;&gt;24&lt;/span&gt;&lt;span style=&quot;caret-color: rgb(33, 33, 33); color: rgb(33, 33, 33); font-size: 13px; text-align: start; font-weight: bold;&quot; class=&quot;o&quot;&gt;*&lt;/span&gt;&lt;span style=&quot;caret-color: rgb(33, 33, 33); color: rgb(33, 33, 33); font-size: 13px; text-align: start;&quot; class=&quot;n&quot;&gt;omega_o&lt;/span&gt;&lt;span style=&quot;caret-color: rgb(33, 33, 33); color: rgb(33, 33, 33); font-size: 13px; text-align: start; font-weight: bold;&quot; class=&quot;o&quot;&gt;/&lt;/span&gt;&lt;span style=&quot;caret-color: rgb(33, 33, 33); color: rgb(33, 33, 33); font-size: 13px; text-align: start;&quot;&gt; &lt;/span&gt;&lt;span style=&quot;caret-color: rgb(33, 33, 33); color: rgb(33, 33, 33); font-size: 13px; text-align: start;&quot; class=&quot;n&quot;&gt;pi&lt;br&gt;&lt;/span&gt;&lt;span style=&quot;caret-color: rgb(33, 33, 33); color: rgb(33, 33, 33); font-size: 13px; text-align: start;&quot; class=&quot;n&quot;&gt;omega_a&lt;/span&gt;&lt;span style=&quot;caret-color: rgb(33, 33, 33); color: rgb(33, 33, 33); font-size: 13px; text-align: start;&quot;&gt; &lt;/span&gt;&lt;span style=&quot;caret-color: rgb(33, 33, 33); color: rgb(33, 33, 33); font-size: 13px; text-align: start; font-weight: bold;&quot; class=&quot;o&quot;&gt;=&lt;/span&gt;&lt;span style=&quot;caret-color: rgb(33, 33, 33); color: rgb(33, 33, 33); font-size: 13px; text-align: start;&quot;&gt; &lt;/span&gt;&lt;span style=&quot;caret-color: rgb(33, 33, 33); color: rgb(33, 33, 33); font-size: 13px; text-align: start; font-weight: bold;&quot; class=&quot;o&quot;&gt;-&lt;/span&gt;&lt;span style=&quot;caret-color: rgb(33, 33, 33); color: rgb(33, 33, 33); font-size: 13px; text-align: start;&quot;&gt; &lt;/span&gt;&lt;span style=&quot;caret-color: rgb(33, 33, 33); color: rgb(33, 33, 33); font-size: 13px; text-align: start;&quot; class=&quot;n&quot;&gt;omega_o&lt;/span&gt;&lt;/span&gt;&lt;/p&gt;" style="rounded=0;whiteSpace=wrap;html=1;labelBackgroundColor=none;fillColor=#F2CC8F;strokeColor=#E07A5F;fontColor=#393C56;sketch=1;curveFitting=1;jiggle=2;" vertex="1" parent="1">
          <mxGeometry x="49.38" y="-830" width="146.25" height="100" as="geometry" />
        </mxCell>
        <mxCell id="bdSsWbuUKSo4tQdDhPc--12" value="" style="edgeStyle=orthogonalEdgeStyle;rounded=0;orthogonalLoop=1;jettySize=auto;html=1;labelBackgroundColor=none;strokeColor=#E07A5F;fontColor=default;sketch=1;curveFitting=1;jiggle=2;" edge="1" parent="1" source="bdSsWbuUKSo4tQdDhPc--9" target="bdSsWbuUKSo4tQdDhPc--10">
          <mxGeometry relative="1" as="geometry" />
        </mxCell>
        <mxCell id="bdSsWbuUKSo4tQdDhPc--9" value="t_so = 12 * (omega_o/pi) +12&lt;div&gt;t_salba = -12 * (omega_o/pi) +12&lt;/div&gt;&lt;div&gt;B = (N - 81)*2*pi/364&lt;/div&gt;&lt;div&gt;E_t = 9.87*sin(2*B) -7.53*cos(B) -1.5*sin(B)&lt;/div&gt;" style="rounded=0;whiteSpace=wrap;html=1;labelBackgroundColor=none;fillColor=#F2CC8F;strokeColor=#E07A5F;fontColor=#393C56;sketch=1;curveFitting=1;jiggle=2;" vertex="1" parent="1">
          <mxGeometry x="47.190000000000005" y="-700" width="150.62" height="110" as="geometry" />
        </mxCell>
        <mxCell id="bdSsWbuUKSo4tQdDhPc--32" value="" style="edgeStyle=orthogonalEdgeStyle;rounded=0;orthogonalLoop=1;jettySize=auto;html=1;labelBackgroundColor=none;strokeColor=#E07A5F;fontColor=default;sketch=1;curveFitting=1;jiggle=2;" edge="1" parent="1" source="bdSsWbuUKSo4tQdDhPc--10" target="bdSsWbuUKSo4tQdDhPc--13">
          <mxGeometry relative="1" as="geometry" />
        </mxCell>
        <mxCell id="bdSsWbuUKSo4tQdDhPc--10" value="t_esto = (t_so) - 12*(L_loc -L_zh)/ pi + C1 &amp;nbsp;+ (E_t/60)&lt;div&gt;t_estalba = (t_salba) - 12*(L_loc -L_zh)/ pi + C1 &amp;nbsp;+ (E_t/60)&lt;br&gt;&lt;/div&gt;" style="rounded=0;whiteSpace=wrap;html=1;labelBackgroundColor=none;fillColor=#F2CC8F;strokeColor=#E07A5F;fontColor=#393C56;sketch=1;curveFitting=1;jiggle=2;" vertex="1" parent="1">
          <mxGeometry x="46.1" y="-560" width="152.8" height="80" as="geometry" />
        </mxCell>
        <mxCell id="bdSsWbuUKSo4tQdDhPc--16" value="" style="edgeStyle=orthogonalEdgeStyle;rounded=0;orthogonalLoop=1;jettySize=auto;html=1;labelBackgroundColor=none;strokeColor=#E07A5F;fontColor=default;sketch=1;curveFitting=1;jiggle=2;" edge="1" parent="1" source="bdSsWbuUKSo4tQdDhPc--13" target="bdSsWbuUKSo4tQdDhPc--14">
          <mxGeometry relative="1" as="geometry" />
        </mxCell>
        <mxCell id="bdSsWbuUKSo4tQdDhPc--13" value="&lt;span style=&quot;caret-color: rgb(0, 0, 0); color: rgb(0, 0, 0); font-family: Helvetica; font-size: 12px; font-style: normal; font-variant-caps: normal; font-weight: 400; letter-spacing: normal; text-align: center; text-indent: 0px; text-transform: none; white-space: normal; word-spacing: 0px; -webkit-text-stroke-width: 0px; text-decoration: none; float: none; display: inline !important;&quot;&gt;t_sol =[]&lt;/span&gt;&lt;div style=&quot;caret-color: rgb(0, 0, 0); color: rgb(0, 0, 0); font-family: Helvetica; font-size: 12px; font-style: normal; font-variant-caps: normal; font-weight: 400; letter-spacing: normal; text-align: center; text-indent: 0px; text-transform: none; white-space: normal; word-spacing: 0px; -webkit-text-stroke-width: 0px; text-decoration: none;&quot;&gt;&lt;span&gt;omega = []&lt;/span&gt;&lt;/div&gt;&lt;div style=&quot;caret-color: rgb(0, 0, 0); color: rgb(0, 0, 0); font-family: Helvetica; font-size: 12px; font-style: normal; font-variant-caps: normal; font-weight: 400; letter-spacing: normal; text-align: center; text-indent: 0px; text-transform: none; white-space: normal; word-spacing: 0px; -webkit-text-stroke-width: 0px; text-decoration: none;&quot;&gt;&lt;span&gt;gamma_s = []&lt;/span&gt;&lt;/div&gt;" style="rounded=0;whiteSpace=wrap;html=1;labelBackgroundColor=none;fillColor=#F2CC8F;strokeColor=#E07A5F;fontColor=#393C56;sketch=1;curveFitting=1;jiggle=2;" vertex="1" parent="1">
          <mxGeometry x="62.5" y="-460" width="120" height="60" as="geometry" />
        </mxCell>
        <mxCell id="bdSsWbuUKSo4tQdDhPc--42" value="" style="edgeStyle=orthogonalEdgeStyle;rounded=0;orthogonalLoop=1;jettySize=auto;html=1;labelBackgroundColor=none;strokeColor=#E07A5F;fontColor=default;sketch=1;curveFitting=1;jiggle=2;" edge="1" parent="1" source="bdSsWbuUKSo4tQdDhPc--14" target="bdSsWbuUKSo4tQdDhPc--41">
          <mxGeometry relative="1" as="geometry" />
        </mxCell>
        <mxCell id="bdSsWbuUKSo4tQdDhPc--14" value="&lt;span&gt;omega = pi * (t_sol-12)/12&lt;br&gt;&lt;/span&gt;&lt;div&gt;&lt;span&gt;gamma_s =&amp;nbsp;&lt;span style=&quot;caret-color: rgb(33, 33, 33); color: rgb(33, 33, 33); font-size: 13px; text-align: start;&quot; class=&quot;n&quot;&gt;arctan2&lt;/span&gt;&lt;span style=&quot;caret-color: rgb(33, 33, 33); color: rgb(33, 33, 33); font-size: 13px; text-align: start;&quot; class=&quot;p&quot;&gt;(&lt;/span&gt;&lt;span style=&quot;caret-color: rgb(33, 33, 33); color: rgb(33, 33, 33); font-size: 13px; text-align: start;&quot; class=&quot;n&quot;&gt;sin&lt;/span&gt;&lt;span style=&quot;caret-color: rgb(33, 33, 33); color: rgb(33, 33, 33); font-size: 13px; text-align: start;&quot; class=&quot;p&quot;&gt;(&lt;/span&gt;&lt;span style=&quot;caret-color: rgb(33, 33, 33); color: rgb(33, 33, 33); font-size: 13px; text-align: start;&quot; class=&quot;n&quot;&gt;omega&lt;/span&gt;&lt;span style=&quot;caret-color: rgb(33, 33, 33); color: rgb(33, 33, 33); font-size: 13px; text-align: start;&quot; class=&quot;p&quot;&gt;)&lt;/span&gt;&lt;span style=&quot;caret-color: rgb(33, 33, 33); color: rgb(33, 33, 33); font-size: 13px; text-align: start; font-weight: bold;&quot; class=&quot;o&quot;&gt;*&lt;/span&gt;&lt;span style=&quot;caret-color: rgb(33, 33, 33); color: rgb(33, 33, 33); font-size: 13px; text-align: start;&quot;&gt; &lt;/span&gt;&lt;span style=&quot;caret-color: rgb(33, 33, 33); color: rgb(33, 33, 33); font-size: 13px; text-align: start;&quot; class=&quot;n&quot;&gt;cos&lt;/span&gt;&lt;span style=&quot;caret-color: rgb(33, 33, 33); color: rgb(33, 33, 33); font-size: 13px; text-align: start;&quot; class=&quot;p&quot;&gt;(&lt;/span&gt;&lt;span style=&quot;caret-color: rgb(33, 33, 33); color: rgb(33, 33, 33); font-size: 13px; text-align: start;&quot; class=&quot;n&quot;&gt;delta&lt;/span&gt;&lt;span style=&quot;caret-color: rgb(33, 33, 33); color: rgb(33, 33, 33); font-size: 13px; text-align: start;&quot; class=&quot;p&quot;&gt;),&lt;/span&gt;&lt;span style=&quot;caret-color: rgb(33, 33, 33); color: rgb(33, 33, 33); font-size: 13px; text-align: start;&quot; class=&quot;n&quot;&gt;sin&lt;/span&gt;&lt;span style=&quot;caret-color: rgb(33, 33, 33); color: rgb(33, 33, 33); font-size: 13px; text-align: start;&quot; class=&quot;p&quot;&gt;(&lt;/span&gt;&lt;span style=&quot;caret-color: rgb(33, 33, 33); color: rgb(33, 33, 33); font-size: 13px; text-align: start;&quot; class=&quot;n&quot;&gt;phi&lt;/span&gt;&lt;span style=&quot;caret-color: rgb(33, 33, 33); color: rgb(33, 33, 33); font-size: 13px; text-align: start;&quot; class=&quot;p&quot;&gt;)&lt;/span&gt;&lt;span style=&quot;caret-color: rgb(33, 33, 33); color: rgb(33, 33, 33); font-size: 13px; text-align: start;&quot;&gt; &lt;/span&gt;&lt;span style=&quot;caret-color: rgb(33, 33, 33); color: rgb(33, 33, 33); font-size: 13px; text-align: start; font-weight: bold;&quot; class=&quot;o&quot;&gt;*&lt;/span&gt;&lt;span style=&quot;caret-color: rgb(33, 33, 33); color: rgb(33, 33, 33); font-size: 13px; text-align: start;&quot;&gt; &lt;/span&gt;&lt;span style=&quot;caret-color: rgb(33, 33, 33); color: rgb(33, 33, 33); font-size: 13px; text-align: start;&quot; class=&quot;n&quot;&gt;cos&lt;/span&gt;&lt;span style=&quot;caret-color: rgb(33, 33, 33); color: rgb(33, 33, 33); font-size: 13px; text-align: start;&quot; class=&quot;p&quot;&gt;(&lt;/span&gt;&lt;span style=&quot;caret-color: rgb(33, 33, 33); color: rgb(33, 33, 33); font-size: 13px; text-align: start;&quot; class=&quot;n&quot;&gt;omega&lt;/span&gt;&lt;span style=&quot;caret-color: rgb(33, 33, 33); color: rgb(33, 33, 33); font-size: 13px; text-align: start;&quot; class=&quot;p&quot;&gt;)&lt;/span&gt;&lt;span style=&quot;caret-color: rgb(33, 33, 33); color: rgb(33, 33, 33); font-size: 13px; text-align: start;&quot;&gt; &lt;/span&gt;&lt;span style=&quot;caret-color: rgb(33, 33, 33); color: rgb(33, 33, 33); font-size: 13px; text-align: start; font-weight: bold;&quot; class=&quot;o&quot;&gt;*&lt;/span&gt;&lt;span style=&quot;caret-color: rgb(33, 33, 33); color: rgb(33, 33, 33); font-size: 13px; text-align: start;&quot;&gt; &lt;/span&gt;&lt;span style=&quot;caret-color: rgb(33, 33, 33); color: rgb(33, 33, 33); font-size: 13px; text-align: start;&quot; class=&quot;n&quot;&gt;cos&lt;/span&gt;&lt;span style=&quot;caret-color: rgb(33, 33, 33); color: rgb(33, 33, 33); font-size: 13px; text-align: start;&quot; class=&quot;p&quot;&gt;(&lt;/span&gt;&lt;span style=&quot;caret-color: rgb(33, 33, 33); color: rgb(33, 33, 33); font-size: 13px; text-align: start;&quot; class=&quot;n&quot;&gt;delta&lt;/span&gt;&lt;span style=&quot;caret-color: rgb(33, 33, 33); color: rgb(33, 33, 33); font-size: 13px; text-align: start;&quot; class=&quot;p&quot;&gt;)&lt;/span&gt;&lt;span style=&quot;caret-color: rgb(33, 33, 33); color: rgb(33, 33, 33); font-size: 13px; text-align: start;&quot;&gt; &lt;/span&gt;&lt;span style=&quot;caret-color: rgb(33, 33, 33); color: rgb(33, 33, 33); font-size: 13px; text-align: start; font-weight: bold;&quot; class=&quot;o&quot;&gt;-&lt;/span&gt;&lt;span style=&quot;caret-color: rgb(33, 33, 33); color: rgb(33, 33, 33); font-size: 13px; text-align: start;&quot;&gt; &lt;/span&gt;&lt;span style=&quot;caret-color: rgb(33, 33, 33); color: rgb(33, 33, 33); font-size: 13px; text-align: start;&quot; class=&quot;n&quot;&gt;cos&lt;/span&gt;&lt;span style=&quot;caret-color: rgb(33, 33, 33); color: rgb(33, 33, 33); font-size: 13px; text-align: start;&quot; class=&quot;p&quot;&gt;(&lt;/span&gt;&lt;span style=&quot;caret-color: rgb(33, 33, 33); color: rgb(33, 33, 33); font-size: 13px; text-align: start;&quot; class=&quot;n&quot;&gt;phi&lt;/span&gt;&lt;span style=&quot;caret-color: rgb(33, 33, 33); color: rgb(33, 33, 33); font-size: 13px; text-align: start;&quot; class=&quot;p&quot;&gt;)&lt;/span&gt;&lt;span style=&quot;caret-color: rgb(33, 33, 33); color: rgb(33, 33, 33); font-size: 13px; text-align: start;&quot;&gt; &lt;/span&gt;&lt;span style=&quot;caret-color: rgb(33, 33, 33); color: rgb(33, 33, 33); font-size: 13px; text-align: start; font-weight: bold;&quot; class=&quot;o&quot;&gt;*&lt;/span&gt;&lt;span style=&quot;caret-color: rgb(33, 33, 33); color: rgb(33, 33, 33); font-size: 13px; text-align: start;&quot;&gt; &lt;/span&gt;&lt;span style=&quot;caret-color: rgb(33, 33, 33); color: rgb(33, 33, 33); font-size: 13px; text-align: start;&quot; class=&quot;n&quot;&gt;sin&lt;/span&gt;&lt;span style=&quot;caret-color: rgb(33, 33, 33); color: rgb(33, 33, 33); font-size: 13px; text-align: start;&quot; class=&quot;p&quot;&gt;(&lt;/span&gt;&lt;span style=&quot;caret-color: rgb(33, 33, 33); color: rgb(33, 33, 33); font-size: 13px; text-align: start;&quot; class=&quot;n&quot;&gt;delta&lt;/span&gt;&lt;span style=&quot;caret-color: rgb(33, 33, 33); color: rgb(33, 33, 33); font-size: 13px; text-align: start;&quot; class=&quot;p&quot;&gt;))&lt;/span&gt;&lt;/span&gt;&lt;/div&gt;" style="rounded=0;whiteSpace=wrap;html=1;labelBackgroundColor=none;fillColor=#F2CC8F;strokeColor=#E07A5F;fontColor=#393C56;sketch=1;curveFitting=1;jiggle=2;" vertex="1" parent="1">
          <mxGeometry x="17.5" y="-380" width="210" height="80" as="geometry" />
        </mxCell>
        <mxCell id="bdSsWbuUKSo4tQdDhPc--38" value="" style="edgeStyle=orthogonalEdgeStyle;rounded=0;orthogonalLoop=1;jettySize=auto;html=1;labelBackgroundColor=none;strokeColor=#E07A5F;fontColor=default;sketch=1;curveFitting=1;jiggle=2;" edge="1" parent="1" source="bdSsWbuUKSo4tQdDhPc--15" target="bdSsWbuUKSo4tQdDhPc--37">
          <mxGeometry relative="1" as="geometry" />
        </mxCell>
        <mxCell id="bdSsWbuUKSo4tQdDhPc--15" value="delta, t_d, t_esto, t_estalba, omega vs t_sol, gamma vs t_sol, alpha vs t_sol, theta_z vs t_sol" style="shape=document;whiteSpace=wrap;html=1;boundedLbl=1;labelBackgroundColor=none;fillColor=#F2CC8F;strokeColor=#E07A5F;fontColor=#393C56;sketch=1;curveFitting=1;jiggle=2;" vertex="1" parent="1">
          <mxGeometry x="580" y="-845" width="140" height="100" as="geometry" />
        </mxCell>
        <mxCell id="bdSsWbuUKSo4tQdDhPc--21" value="" style="edgeStyle=orthogonalEdgeStyle;rounded=0;orthogonalLoop=1;jettySize=auto;html=1;labelBackgroundColor=none;strokeColor=#E07A5F;fontColor=default;sketch=1;curveFitting=1;jiggle=2;" edge="1" parent="1" source="bdSsWbuUKSo4tQdDhPc--17" target="bdSsWbuUKSo4tQdDhPc--18">
          <mxGeometry relative="1" as="geometry" />
        </mxCell>
        <mxCell id="bdSsWbuUKSo4tQdDhPc--55" value="" style="edgeStyle=orthogonalEdgeStyle;rounded=0;orthogonalLoop=1;jettySize=auto;html=1;entryX=0.5;entryY=0;entryDx=0;entryDy=0;labelBackgroundColor=none;strokeColor=#E07A5F;fontColor=default;sketch=1;curveFitting=1;jiggle=2;" edge="1" parent="1" source="bdSsWbuUKSo4tQdDhPc--17" target="bdSsWbuUKSo4tQdDhPc--44">
          <mxGeometry relative="1" as="geometry">
            <mxPoint x="540" y="-360" as="targetPoint" />
            <Array as="points">
              <mxPoint x="550" y="-910" />
              <mxPoint x="550" y="-360" />
            </Array>
          </mxGeometry>
        </mxCell>
        <mxCell id="bdSsWbuUKSo4tQdDhPc--17" value="&lt;p&gt;&lt;span class=&quot;n&quot;&gt;sin&lt;/span&gt;&lt;span class=&quot;p&quot;&gt;(&lt;/span&gt;&lt;span class=&quot;n&quot;&gt;phi&lt;/span&gt;&lt;span class=&quot;p&quot;&gt;)&lt;/span&gt; &lt;span style=&quot;font-weight: bold;&quot; class=&quot;o&quot;&gt;*&lt;/span&gt;&lt;span style=&quot;caret-color: rgb(33, 33, 33); color: rgb(33, 33, 33); font-family: Helvetica; white-space: normal;&quot; class=&quot;n&quot;&gt;cos&lt;/span&gt;&lt;span style=&quot;caret-color: rgb(33, 33, 33); color: rgb(33, 33, 33); font-family: Helvetica; white-space: normal;&quot; class=&quot;p&quot;&gt;(&lt;/span&gt;&lt;span style=&quot;caret-color: rgb(33, 33, 33); color: rgb(33, 33, 33); font-family: Helvetica; white-space: normal;&quot; class=&quot;n&quot;&gt;omega&lt;/span&gt;&lt;span style=&quot;caret-color: rgb(33, 33, 33); color: rgb(33, 33, 33); font-family: Helvetica; white-space: normal;&quot; class=&quot;p&quot;&gt;[&lt;/span&gt;&lt;span style=&quot;caret-color: rgb(33, 33, 33); color: rgb(33, 33, 33); font-family: Helvetica; white-space: normal;&quot; class=&quot;n&quot;&gt;i&lt;/span&gt;&lt;span style=&quot;caret-color: rgb(33, 33, 33); color: rgb(33, 33, 33); font-family: Helvetica; white-space: normal;&quot; class=&quot;p&quot;&gt;])&lt;/span&gt;&lt;span style=&quot;caret-color: rgb(33, 33, 33); color: rgb(33, 33, 33); font-family: Helvetica; white-space: normal;&quot;&gt; &lt;/span&gt;&lt;span style=&quot;caret-color: rgb(33, 33, 33); color: rgb(33, 33, 33); font-family: Helvetica; white-space: normal; font-weight: bold;&quot; class=&quot;o&quot;&gt;*&lt;/span&gt;&lt;span style=&quot;caret-color: rgb(33, 33, 33); color: rgb(33, 33, 33); font-family: Helvetica; white-space: normal;&quot;&gt; &lt;/span&gt;&lt;span style=&quot;caret-color: rgb(33, 33, 33); color: rgb(33, 33, 33); font-family: Helvetica; white-space: normal;&quot; class=&quot;n&quot;&gt;cos&lt;/span&gt;&lt;span style=&quot;caret-color: rgb(33, 33, 33); color: rgb(33, 33, 33); font-family: Helvetica; white-space: normal;&quot; class=&quot;p&quot;&gt;(&lt;/span&gt;&lt;span style=&quot;caret-color: rgb(33, 33, 33); color: rgb(33, 33, 33); font-family: Helvetica; white-space: normal;&quot; class=&quot;n&quot;&gt;delta&lt;/span&gt;&lt;span style=&quot;caret-color: rgb(33, 33, 33); color: rgb(33, 33, 33); font-family: Helvetica; white-space: normal;&quot; class=&quot;p&quot;&gt;)&lt;/span&gt;&lt;span style=&quot;caret-color: rgb(33, 33, 33); color: rgb(33, 33, 33); font-family: Helvetica; white-space: normal;&quot;&gt; &lt;/span&gt;&lt;span style=&quot;caret-color: rgb(33, 33, 33); color: rgb(33, 33, 33); font-family: Helvetica; white-space: normal; font-weight: bold;&quot; class=&quot;o&quot;&gt;-&lt;/span&gt;&lt;span style=&quot;caret-color: rgb(33, 33, 33); color: rgb(33, 33, 33); font-family: Helvetica; white-space: normal;&quot;&gt; &lt;/span&gt;&lt;span style=&quot;caret-color: rgb(33, 33, 33); color: rgb(33, 33, 33); font-family: Helvetica; white-space: normal;&quot; class=&quot;n&quot;&gt;cos&lt;/span&gt;&lt;span style=&quot;caret-color: rgb(33, 33, 33); color: rgb(33, 33, 33); font-family: Helvetica; white-space: normal;&quot; class=&quot;p&quot;&gt;(&lt;/span&gt;&lt;span style=&quot;caret-color: rgb(33, 33, 33); color: rgb(33, 33, 33); font-family: Helvetica; white-space: normal;&quot; class=&quot;n&quot;&gt;phi&lt;/span&gt;&lt;span style=&quot;caret-color: rgb(33, 33, 33); color: rgb(33, 33, 33); font-family: Helvetica; white-space: normal;&quot; class=&quot;p&quot;&gt;)&lt;/span&gt;&lt;span style=&quot;caret-color: rgb(33, 33, 33); color: rgb(33, 33, 33); font-family: Helvetica; white-space: normal;&quot;&gt; &lt;/span&gt;&lt;span style=&quot;caret-color: rgb(33, 33, 33); color: rgb(33, 33, 33); font-family: Helvetica; white-space: normal; font-weight: bold;&quot; class=&quot;o&quot;&gt;*&lt;/span&gt;&lt;span style=&quot;caret-color: rgb(33, 33, 33); color: rgb(33, 33, 33); font-family: Helvetica; white-space: normal;&quot;&gt; &lt;/span&gt;&lt;span style=&quot;caret-color: rgb(33, 33, 33); color: rgb(33, 33, 33); font-family: Helvetica; white-space: normal;&quot; class=&quot;n&quot;&gt;sin&lt;/span&gt;&lt;span style=&quot;caret-color: rgb(33, 33, 33); color: rgb(33, 33, 33); font-family: Helvetica; white-space: normal;&quot; class=&quot;p&quot;&gt;(&lt;/span&gt;&lt;span style=&quot;caret-color: rgb(33, 33, 33); color: rgb(33, 33, 33); font-family: Helvetica; white-space: normal;&quot; class=&quot;n&quot;&gt;delta&lt;/span&gt;&lt;span style=&quot;caret-color: rgb(33, 33, 33); color: rgb(33, 33, 33); font-family: Helvetica; white-space: normal;&quot; class=&quot;p&quot;&gt;)&lt;/span&gt;&lt;span style=&quot;caret-color: rgb(33, 33, 33); color: rgb(33, 33, 33); font-family: Helvetica; white-space: normal;&quot;&gt; &lt;/span&gt;&lt;span style=&quot;caret-color: rgb(33, 33, 33); color: rgb(33, 33, 33); font-family: Helvetica; white-space: normal; font-weight: bold;&quot; class=&quot;o&quot;&gt;&amp;gt;=&lt;/span&gt;&lt;span style=&quot;caret-color: rgb(33, 33, 33); color: rgb(33, 33, 33); font-family: Helvetica; white-space: normal;&quot;&gt; &lt;/span&gt;&lt;span style=&quot;caret-color: rgb(33, 33, 33); color: rgb(33, 33, 33); font-family: Helvetica; white-space: normal;&quot; class=&quot;mi&quot;&gt;0&lt;/span&gt;&lt;/p&gt;" style="rhombus;whiteSpace=wrap;html=1;labelBackgroundColor=none;fillColor=#F2CC8F;strokeColor=#E07A5F;fontColor=#393C56;sketch=1;curveFitting=1;jiggle=2;" vertex="1" parent="1">
          <mxGeometry x="308.12" y="-960" width="177.5" height="100" as="geometry" />
        </mxCell>
        <mxCell id="bdSsWbuUKSo4tQdDhPc--25" value="" style="edgeStyle=orthogonalEdgeStyle;rounded=0;orthogonalLoop=1;jettySize=auto;html=1;labelBackgroundColor=none;strokeColor=#E07A5F;fontColor=default;sketch=1;curveFitting=1;jiggle=2;" edge="1" parent="1" source="bdSsWbuUKSo4tQdDhPc--18" target="bdSsWbuUKSo4tQdDhPc--23">
          <mxGeometry relative="1" as="geometry" />
        </mxCell>
        <mxCell id="bdSsWbuUKSo4tQdDhPc--18" value="gamma[I] = gamma_s [I]" style="rounded=0;whiteSpace=wrap;html=1;labelBackgroundColor=none;fillColor=#F2CC8F;strokeColor=#E07A5F;fontColor=#393C56;sketch=1;curveFitting=1;jiggle=2;" vertex="1" parent="1">
          <mxGeometry x="329.37" y="-840" width="135" height="40" as="geometry" />
        </mxCell>
        <mxCell id="bdSsWbuUKSo4tQdDhPc--39" value="" style="edgeStyle=orthogonalEdgeStyle;rounded=0;orthogonalLoop=1;jettySize=auto;html=1;entryX=0.5;entryY=0;entryDx=0;entryDy=0;labelBackgroundColor=none;strokeColor=#E07A5F;fontColor=default;sketch=1;curveFitting=1;jiggle=2;" edge="1" parent="1" source="bdSsWbuUKSo4tQdDhPc--19" target="bdSsWbuUKSo4tQdDhPc--17">
          <mxGeometry relative="1" as="geometry" />
        </mxCell>
        <mxCell id="bdSsWbuUKSo4tQdDhPc--19" value="&amp;nbsp;i = 0&amp;nbsp;" style="rounded=0;whiteSpace=wrap;html=1;labelBackgroundColor=none;fillColor=#F2CC8F;strokeColor=#E07A5F;fontColor=#393C56;sketch=1;curveFitting=1;jiggle=2;" vertex="1" parent="1">
          <mxGeometry x="336.87" y="-1005" width="120" height="30" as="geometry" />
        </mxCell>
        <mxCell id="bdSsWbuUKSo4tQdDhPc--22" value="" style="edgeStyle=orthogonalEdgeStyle;rounded=0;orthogonalLoop=1;jettySize=auto;html=1;labelBackgroundColor=none;strokeColor=#E07A5F;fontColor=default;sketch=1;curveFitting=1;jiggle=2;" edge="1" parent="1" source="bdSsWbuUKSo4tQdDhPc--23" target="bdSsWbuUKSo4tQdDhPc--24">
          <mxGeometry relative="1" as="geometry" />
        </mxCell>
        <mxCell id="bdSsWbuUKSo4tQdDhPc--23" value="&lt;p&gt;&lt;span class=&quot;n&quot;&gt;sin&lt;/span&gt;&lt;span class=&quot;p&quot;&gt;(&lt;/span&gt;&lt;span class=&quot;n&quot;&gt;phi&lt;/span&gt;&lt;span class=&quot;p&quot;&gt;)&lt;/span&gt; &lt;span style=&quot;font-weight: bold;&quot; class=&quot;o&quot;&gt;*&lt;/span&gt;&lt;span style=&quot;caret-color: rgb(33, 33, 33); color: rgb(33, 33, 33); font-family: Helvetica; white-space: normal;&quot; class=&quot;n&quot;&gt;cos&lt;/span&gt;&lt;span style=&quot;caret-color: rgb(33, 33, 33); color: rgb(33, 33, 33); font-family: Helvetica; white-space: normal;&quot; class=&quot;p&quot;&gt;(&lt;/span&gt;&lt;span style=&quot;caret-color: rgb(33, 33, 33); color: rgb(33, 33, 33); font-family: Helvetica; white-space: normal;&quot; class=&quot;n&quot;&gt;omega&lt;/span&gt;&lt;span style=&quot;caret-color: rgb(33, 33, 33); color: rgb(33, 33, 33); font-family: Helvetica; white-space: normal;&quot; class=&quot;p&quot;&gt;[&lt;/span&gt;&lt;span style=&quot;caret-color: rgb(33, 33, 33); color: rgb(33, 33, 33); font-family: Helvetica; white-space: normal;&quot; class=&quot;n&quot;&gt;i&lt;/span&gt;&lt;span style=&quot;caret-color: rgb(33, 33, 33); color: rgb(33, 33, 33); font-family: Helvetica; white-space: normal;&quot; class=&quot;p&quot;&gt;])&lt;/span&gt;&lt;span style=&quot;caret-color: rgb(33, 33, 33); color: rgb(33, 33, 33); font-family: Helvetica; white-space: normal;&quot;&gt; &lt;/span&gt;&lt;span style=&quot;caret-color: rgb(33, 33, 33); color: rgb(33, 33, 33); font-family: Helvetica; white-space: normal; font-weight: bold;&quot; class=&quot;o&quot;&gt;*&lt;/span&gt;&lt;span style=&quot;caret-color: rgb(33, 33, 33); color: rgb(33, 33, 33); font-family: Helvetica; white-space: normal;&quot;&gt; &lt;/span&gt;&lt;span style=&quot;caret-color: rgb(33, 33, 33); color: rgb(33, 33, 33); font-family: Helvetica; white-space: normal;&quot; class=&quot;n&quot;&gt;cos&lt;/span&gt;&lt;span style=&quot;caret-color: rgb(33, 33, 33); color: rgb(33, 33, 33); font-family: Helvetica; white-space: normal;&quot; class=&quot;p&quot;&gt;(&lt;/span&gt;&lt;span style=&quot;caret-color: rgb(33, 33, 33); color: rgb(33, 33, 33); font-family: Helvetica; white-space: normal;&quot; class=&quot;n&quot;&gt;delta&lt;/span&gt;&lt;span style=&quot;caret-color: rgb(33, 33, 33); color: rgb(33, 33, 33); font-family: Helvetica; white-space: normal;&quot; class=&quot;p&quot;&gt;)&lt;/span&gt;&lt;span style=&quot;caret-color: rgb(33, 33, 33); color: rgb(33, 33, 33); font-family: Helvetica; white-space: normal;&quot;&gt; &lt;/span&gt;&lt;span style=&quot;caret-color: rgb(33, 33, 33); color: rgb(33, 33, 33); font-family: Helvetica; white-space: normal; font-weight: bold;&quot; class=&quot;o&quot;&gt;-&lt;/span&gt;&lt;span style=&quot;caret-color: rgb(33, 33, 33); color: rgb(33, 33, 33); font-family: Helvetica; white-space: normal;&quot;&gt; &lt;/span&gt;&lt;span style=&quot;caret-color: rgb(33, 33, 33); color: rgb(33, 33, 33); font-family: Helvetica; white-space: normal;&quot; class=&quot;n&quot;&gt;cos&lt;/span&gt;&lt;span style=&quot;caret-color: rgb(33, 33, 33); color: rgb(33, 33, 33); font-family: Helvetica; white-space: normal;&quot; class=&quot;p&quot;&gt;(&lt;/span&gt;&lt;span style=&quot;caret-color: rgb(33, 33, 33); color: rgb(33, 33, 33); font-family: Helvetica; white-space: normal;&quot; class=&quot;n&quot;&gt;phi&lt;/span&gt;&lt;span style=&quot;caret-color: rgb(33, 33, 33); color: rgb(33, 33, 33); font-family: Helvetica; white-space: normal;&quot; class=&quot;p&quot;&gt;)&lt;/span&gt;&lt;span style=&quot;caret-color: rgb(33, 33, 33); color: rgb(33, 33, 33); font-family: Helvetica; white-space: normal;&quot;&gt; &lt;/span&gt;&lt;span style=&quot;caret-color: rgb(33, 33, 33); color: rgb(33, 33, 33); font-family: Helvetica; white-space: normal; font-weight: bold;&quot; class=&quot;o&quot;&gt;*&lt;/span&gt;&lt;span style=&quot;caret-color: rgb(33, 33, 33); color: rgb(33, 33, 33); font-family: Helvetica; white-space: normal;&quot;&gt; &lt;/span&gt;&lt;span style=&quot;caret-color: rgb(33, 33, 33); color: rgb(33, 33, 33); font-family: Helvetica; white-space: normal;&quot; class=&quot;n&quot;&gt;sin&lt;/span&gt;&lt;span style=&quot;caret-color: rgb(33, 33, 33); color: rgb(33, 33, 33); font-family: Helvetica; white-space: normal;&quot; class=&quot;p&quot;&gt;(&lt;/span&gt;&lt;span style=&quot;caret-color: rgb(33, 33, 33); color: rgb(33, 33, 33); font-family: Helvetica; white-space: normal;&quot; class=&quot;n&quot;&gt;delta&lt;/span&gt;&lt;span style=&quot;caret-color: rgb(33, 33, 33); color: rgb(33, 33, 33); font-family: Helvetica; white-space: normal;&quot; class=&quot;p&quot;&gt;) &amp;lt;&lt;/span&gt;&lt;span style=&quot;caret-color: rgb(33, 33, 33); color: rgb(33, 33, 33); font-family: Helvetica; white-space: normal;&quot;&gt;&amp;nbsp;&lt;/span&gt;&lt;span style=&quot;caret-color: rgb(33, 33, 33); color: rgb(33, 33, 33); font-family: Helvetica; white-space: normal;&quot; class=&quot;mi&quot;&gt;0 &amp;amp;&amp;amp; sin(omega[I])*cos(delta) &amp;lt;0&lt;/span&gt;&lt;/p&gt;" style="rhombus;whiteSpace=wrap;html=1;labelBackgroundColor=none;fillColor=#F2CC8F;strokeColor=#E07A5F;fontColor=#393C56;sketch=1;curveFitting=1;jiggle=2;" vertex="1" parent="1">
          <mxGeometry x="280" y="-780" width="233.75" height="100" as="geometry" />
        </mxCell>
        <mxCell id="bdSsWbuUKSo4tQdDhPc--29" value="" style="edgeStyle=orthogonalEdgeStyle;rounded=0;orthogonalLoop=1;jettySize=auto;html=1;labelBackgroundColor=none;strokeColor=#E07A5F;fontColor=default;sketch=1;curveFitting=1;jiggle=2;" edge="1" parent="1" source="bdSsWbuUKSo4tQdDhPc--24" target="bdSsWbuUKSo4tQdDhPc--27">
          <mxGeometry relative="1" as="geometry" />
        </mxCell>
        <mxCell id="bdSsWbuUKSo4tQdDhPc--24" value="gamma[I] = gamma_s [I] - pi" style="rounded=0;whiteSpace=wrap;html=1;labelBackgroundColor=none;fillColor=#F2CC8F;strokeColor=#E07A5F;fontColor=#393C56;sketch=1;curveFitting=1;jiggle=2;" vertex="1" parent="1">
          <mxGeometry x="318.44" y="-655" width="156.87" height="40" as="geometry" />
        </mxCell>
        <mxCell id="bdSsWbuUKSo4tQdDhPc--26" value="" style="edgeStyle=orthogonalEdgeStyle;rounded=0;orthogonalLoop=1;jettySize=auto;html=1;labelBackgroundColor=none;strokeColor=#E07A5F;fontColor=default;sketch=1;curveFitting=1;jiggle=2;" edge="1" parent="1" source="bdSsWbuUKSo4tQdDhPc--27" target="bdSsWbuUKSo4tQdDhPc--28">
          <mxGeometry relative="1" as="geometry" />
        </mxCell>
        <mxCell id="bdSsWbuUKSo4tQdDhPc--27" value="&lt;p&gt;&lt;span class=&quot;n&quot;&gt;sin&lt;/span&gt;&lt;span class=&quot;p&quot;&gt;(&lt;/span&gt;&lt;span class=&quot;n&quot;&gt;phi&lt;/span&gt;&lt;span class=&quot;p&quot;&gt;)&lt;/span&gt; &lt;span style=&quot;font-weight: bold;&quot; class=&quot;o&quot;&gt;*&lt;/span&gt;&lt;span style=&quot;caret-color: rgb(33, 33, 33); color: rgb(33, 33, 33); font-family: Helvetica; white-space: normal;&quot; class=&quot;n&quot;&gt;cos&lt;/span&gt;&lt;span style=&quot;caret-color: rgb(33, 33, 33); color: rgb(33, 33, 33); font-family: Helvetica; white-space: normal;&quot; class=&quot;p&quot;&gt;(&lt;/span&gt;&lt;span style=&quot;caret-color: rgb(33, 33, 33); color: rgb(33, 33, 33); font-family: Helvetica; white-space: normal;&quot; class=&quot;n&quot;&gt;omega&lt;/span&gt;&lt;span style=&quot;caret-color: rgb(33, 33, 33); color: rgb(33, 33, 33); font-family: Helvetica; white-space: normal;&quot; class=&quot;p&quot;&gt;[&lt;/span&gt;&lt;span style=&quot;caret-color: rgb(33, 33, 33); color: rgb(33, 33, 33); font-family: Helvetica; white-space: normal;&quot; class=&quot;n&quot;&gt;i&lt;/span&gt;&lt;span style=&quot;caret-color: rgb(33, 33, 33); color: rgb(33, 33, 33); font-family: Helvetica; white-space: normal;&quot; class=&quot;p&quot;&gt;])&lt;/span&gt;&lt;span style=&quot;caret-color: rgb(33, 33, 33); color: rgb(33, 33, 33); font-family: Helvetica; white-space: normal;&quot;&gt; &lt;/span&gt;&lt;span style=&quot;caret-color: rgb(33, 33, 33); color: rgb(33, 33, 33); font-family: Helvetica; white-space: normal; font-weight: bold;&quot; class=&quot;o&quot;&gt;*&lt;/span&gt;&lt;span style=&quot;caret-color: rgb(33, 33, 33); color: rgb(33, 33, 33); font-family: Helvetica; white-space: normal;&quot;&gt;&amp;nbsp;&lt;/span&gt;&lt;span style=&quot;caret-color: rgb(33, 33, 33); color: rgb(33, 33, 33);&quot; class=&quot;n&quot;&gt;cos&lt;/span&gt;&lt;span style=&quot;caret-color: rgb(33, 33, 33); color: rgb(33, 33, 33);&quot; class=&quot;p&quot;&gt;(&lt;/span&gt;&lt;span style=&quot;caret-color: rgb(33, 33, 33); color: rgb(33, 33, 33);&quot; class=&quot;n&quot;&gt;delta&lt;/span&gt;&lt;span style=&quot;caret-color: rgb(33, 33, 33); color: rgb(33, 33, 33);&quot; class=&quot;p&quot;&gt;)&lt;/span&gt;&lt;span style=&quot;caret-color: rgb(33, 33, 33); color: rgb(33, 33, 33);&quot;&gt; &lt;/span&gt;&lt;span style=&quot;caret-color: rgb(33, 33, 33); color: rgb(33, 33, 33); font-weight: bold;&quot; class=&quot;o&quot;&gt;-&lt;/span&gt;&lt;span style=&quot;caret-color: rgb(33, 33, 33); color: rgb(33, 33, 33);&quot;&gt; &lt;/span&gt;&lt;span style=&quot;caret-color: rgb(33, 33, 33); color: rgb(33, 33, 33);&quot; class=&quot;n&quot;&gt;cos&lt;/span&gt;&lt;span style=&quot;caret-color: rgb(33, 33, 33); color: rgb(33, 33, 33);&quot; class=&quot;p&quot;&gt;(&lt;/span&gt;&lt;span style=&quot;caret-color: rgb(33, 33, 33); color: rgb(33, 33, 33);&quot; class=&quot;n&quot;&gt;phi&lt;/span&gt;&lt;span style=&quot;caret-color: rgb(33, 33, 33); color: rgb(33, 33, 33);&quot; class=&quot;p&quot;&gt;)&lt;/span&gt;&lt;span style=&quot;caret-color: rgb(33, 33, 33); color: rgb(33, 33, 33);&quot;&gt; &lt;/span&gt;&lt;span style=&quot;caret-color: rgb(33, 33, 33); color: rgb(33, 33, 33);&quot; class=&quot;o&quot;&gt;*&lt;/span&gt;&lt;span style=&quot;caret-color: rgb(33, 33, 33); color: rgb(33, 33, 33);&quot;&gt; &lt;/span&gt;&lt;span style=&quot;caret-color: rgb(33, 33, 33); color: rgb(33, 33, 33);&quot; class=&quot;n&quot;&gt;sin&lt;/span&gt;&lt;span style=&quot;caret-color: rgb(33, 33, 33); color: rgb(33, 33, 33);&quot; class=&quot;p&quot;&gt;(&lt;/span&gt;&lt;span style=&quot;caret-color: rgb(33, 33, 33); color: rgb(33, 33, 33);&quot; class=&quot;n&quot;&gt;delta&lt;/span&gt;&lt;span style=&quot;caret-color: rgb(33, 33, 33); color: rgb(33, 33, 33);&quot; class=&quot;p&quot;&gt;)&lt;/span&gt;&lt;span style=&quot;caret-color: rgb(33, 33, 33); color: rgb(33, 33, 33);&quot;&gt;&amp;nbsp;&amp;lt;&lt;/span&gt;&lt;span style=&quot;caret-color: rgb(33, 33, 33); color: rgb(33, 33, 33);&quot;&gt;&amp;nbsp;&lt;/span&gt;&lt;span style=&quot;caret-color: rgb(33, 33, 33); color: rgb(33, 33, 33);&quot; class=&quot;mi&quot;&gt;0 &amp;amp;&amp;amp;&amp;nbsp;&lt;/span&gt;&lt;span style=&quot;caret-color: rgb(33, 33, 33); color: rgb(33, 33, 33);&quot;&gt;sin(omega[I])*cos(delta) &amp;gt;= 0&lt;/span&gt;&lt;/p&gt;" style="rhombus;whiteSpace=wrap;html=1;labelBackgroundColor=none;fillColor=#F2CC8F;strokeColor=#E07A5F;fontColor=#393C56;sketch=1;curveFitting=1;jiggle=2;" vertex="1" parent="1">
          <mxGeometry x="288.13" y="-590" width="217.5" height="100" as="geometry" />
        </mxCell>
        <mxCell id="bdSsWbuUKSo4tQdDhPc--31" value="" style="edgeStyle=orthogonalEdgeStyle;rounded=0;orthogonalLoop=1;jettySize=auto;html=1;labelBackgroundColor=none;strokeColor=#E07A5F;fontColor=default;sketch=1;curveFitting=1;jiggle=2;" edge="1" parent="1" source="bdSsWbuUKSo4tQdDhPc--28" target="bdSsWbuUKSo4tQdDhPc--30">
          <mxGeometry relative="1" as="geometry" />
        </mxCell>
        <mxCell id="bdSsWbuUKSo4tQdDhPc--28" value="gamma[I] = gamma_s [I] + pi" style="rounded=0;whiteSpace=wrap;html=1;labelBackgroundColor=none;fillColor=#F2CC8F;strokeColor=#E07A5F;fontColor=#393C56;sketch=1;curveFitting=1;jiggle=2;" vertex="1" parent="1">
          <mxGeometry x="314.37" y="-470" width="165" height="40" as="geometry" />
        </mxCell>
        <mxCell id="bdSsWbuUKSo4tQdDhPc--54" value="" style="edgeStyle=orthogonalEdgeStyle;rounded=0;orthogonalLoop=1;jettySize=auto;html=1;labelBackgroundColor=none;strokeColor=#E07A5F;fontColor=default;sketch=1;curveFitting=1;jiggle=2;" edge="1" parent="1" source="bdSsWbuUKSo4tQdDhPc--30">
          <mxGeometry relative="1" as="geometry">
            <mxPoint x="397" y="-1020" as="targetPoint" />
            <Array as="points">
              <mxPoint x="270" y="-395" />
              <mxPoint x="270" y="-1020" />
            </Array>
          </mxGeometry>
        </mxCell>
        <mxCell id="bdSsWbuUKSo4tQdDhPc--30" value="I = I +1&amp;nbsp;" style="rounded=0;whiteSpace=wrap;html=1;labelBackgroundColor=none;fillColor=#F2CC8F;strokeColor=#E07A5F;fontColor=#393C56;sketch=1;curveFitting=1;jiggle=2;" vertex="1" parent="1">
          <mxGeometry x="336.87" y="-410" width="120" height="30" as="geometry" />
        </mxCell>
        <mxCell id="bdSsWbuUKSo4tQdDhPc--53" value="" style="edgeStyle=orthogonalEdgeStyle;rounded=0;orthogonalLoop=1;jettySize=auto;html=1;labelBackgroundColor=none;strokeColor=#E07A5F;fontColor=default;sketch=1;curveFitting=1;jiggle=2;" edge="1" parent="1" source="bdSsWbuUKSo4tQdDhPc--33" target="bdSsWbuUKSo4tQdDhPc--34">
          <mxGeometry relative="1" as="geometry" />
        </mxCell>
        <mxCell id="bdSsWbuUKSo4tQdDhPc--33" value="theta_z = []&lt;div&gt;alpha = []&lt;/div&gt;" style="rounded=0;whiteSpace=wrap;html=1;labelBackgroundColor=none;fillColor=#F2CC8F;strokeColor=#E07A5F;fontColor=#393C56;sketch=1;curveFitting=1;jiggle=2;" vertex="1" parent="1">
          <mxGeometry x="590" y="-1010" width="120" height="40" as="geometry" />
        </mxCell>
        <mxCell id="bdSsWbuUKSo4tQdDhPc--35" value="" style="edgeStyle=orthogonalEdgeStyle;rounded=0;orthogonalLoop=1;jettySize=auto;html=1;labelBackgroundColor=none;strokeColor=#E07A5F;fontColor=default;sketch=1;curveFitting=1;jiggle=2;" edge="1" parent="1" source="bdSsWbuUKSo4tQdDhPc--34" target="bdSsWbuUKSo4tQdDhPc--15">
          <mxGeometry relative="1" as="geometry" />
        </mxCell>
        <mxCell id="bdSsWbuUKSo4tQdDhPc--34" value="theta_z = arcsin[sin(phi)*sin(delta) + cos(phi)*cos(delta)* cos(omega)]&lt;div&gt;alpha = pi/2 - theta_z&lt;/div&gt;" style="rounded=0;whiteSpace=wrap;html=1;labelBackgroundColor=none;fillColor=#F2CC8F;strokeColor=#E07A5F;fontColor=#393C56;sketch=1;curveFitting=1;jiggle=2;" vertex="1" parent="1">
          <mxGeometry x="580" y="-945" width="140" height="70" as="geometry" />
        </mxCell>
        <mxCell id="bdSsWbuUKSo4tQdDhPc--37" value="FIN" style="ellipse;whiteSpace=wrap;html=1;labelBackgroundColor=none;fillColor=#F2CC8F;strokeColor=#E07A5F;fontColor=#393C56;sketch=1;curveFitting=1;jiggle=2;" vertex="1" parent="1">
          <mxGeometry x="607.5" y="-725" width="85" height="40" as="geometry" />
        </mxCell>
        <mxCell id="bdSsWbuUKSo4tQdDhPc--43" value="" style="edgeStyle=orthogonalEdgeStyle;rounded=0;orthogonalLoop=1;jettySize=auto;html=1;labelBackgroundColor=none;strokeColor=#E07A5F;fontColor=default;sketch=1;curveFitting=1;jiggle=2;" edge="1" parent="1" source="bdSsWbuUKSo4tQdDhPc--40" target="bdSsWbuUKSo4tQdDhPc--19">
          <mxGeometry relative="1" as="geometry" />
        </mxCell>
        <mxCell id="bdSsWbuUKSo4tQdDhPc--40" value="1" style="ellipse;whiteSpace=wrap;html=1;aspect=fixed;labelBackgroundColor=none;fillColor=#F2CC8F;strokeColor=#E07A5F;fontColor=#393C56;sketch=1;curveFitting=1;jiggle=2;" vertex="1" parent="1">
          <mxGeometry x="381.87" y="-1065" width="30" height="30" as="geometry" />
        </mxCell>
        <mxCell id="bdSsWbuUKSo4tQdDhPc--41" value="1" style="ellipse;whiteSpace=wrap;html=1;aspect=fixed;labelBackgroundColor=none;fillColor=#F2CC8F;strokeColor=#E07A5F;fontColor=#393C56;sketch=1;curveFitting=1;jiggle=2;" vertex="1" parent="1">
          <mxGeometry x="107.5" y="-280" width="30" height="30" as="geometry" />
        </mxCell>
        <mxCell id="bdSsWbuUKSo4tQdDhPc--44" value="2" style="ellipse;whiteSpace=wrap;html=1;aspect=fixed;labelBackgroundColor=none;fillColor=#F2CC8F;strokeColor=#E07A5F;fontColor=#393C56;sketch=1;curveFitting=1;jiggle=2;" vertex="1" parent="1">
          <mxGeometry x="381.88" y="-340" width="30" height="30" as="geometry" />
        </mxCell>
        <mxCell id="bdSsWbuUKSo4tQdDhPc--52" value="" style="edgeStyle=orthogonalEdgeStyle;rounded=0;orthogonalLoop=1;jettySize=auto;html=1;labelBackgroundColor=none;strokeColor=#E07A5F;fontColor=default;sketch=1;curveFitting=1;jiggle=2;" edge="1" parent="1" source="bdSsWbuUKSo4tQdDhPc--46" target="bdSsWbuUKSo4tQdDhPc--33">
          <mxGeometry relative="1" as="geometry" />
        </mxCell>
        <mxCell id="bdSsWbuUKSo4tQdDhPc--46" value="2" style="ellipse;whiteSpace=wrap;html=1;aspect=fixed;labelBackgroundColor=none;fillColor=#F2CC8F;strokeColor=#E07A5F;fontColor=#393C56;sketch=1;curveFitting=1;jiggle=2;" vertex="1" parent="1">
          <mxGeometry x="635" y="-1065" width="30" height="30" as="geometry" />
        </mxCell>
      </root>
    </mxGraphModel>
  </diagram>
</mxfile>
